<svg xmlns="http://www.w3.org/2000/svg" viewBox="0 0 735.3 297.97"><defs><style>.cls-1{fill:#231f20;}</style></defs><g id="Layer_3" data-name="Layer 3"><path class="cls-1" d="M80.3,145.64h22.58l35.51,84.61H139l35.2-84.61h22.57V257.39H181.64V165.53h-.32L143.6,257.39H133.5L95.77,165.53h-.31v91.86H80.3Z"/><path class="cls-1" d="M375.15,145.64h22.57l35.51,84.61h.63l35.2-84.61h22.57V257.39H476.48V165.53h-.32l-37.72,91.86h-10.1l-37.73-91.86h-.31v91.86H375.15Z"/><path class="cls-1" d="M112.53,120c-14.77,0-24-7.44-28.5-18.26L95,95.54c3.61,7.1,8.73,12.8,17.34,12.8,9.77,0,13.73-5.47,13.73-14.66V40h13.5V93.8C139.53,108.34,130.57,120,112.53,120Z"/><path class="cls-1" d="M215.85,117.53,208.28,98H175.59l-7.33,19.55H154.53L185.71,40h12.57l31.64,77.49ZM191.65,56l-12.1,31.53h24.54Z"/><path class="cls-1" d="M301.82,117.53l-36.3-46.07-6.4-8.85v54.92h-13V40h11.75L293.1,86.47l6.28,8.72V40h13v77.49Z"/><path class="cls-1" d="M336.61,117.53V40h56.08V51.68H350V71.81H382.1v11H350v23h42.7v11.63Z"/><path class="cls-1" d="M413.16,117.53V40h13.38V105.9h44.79v11.63Z"/><path class="cls-1" d="M489.24,117.53V40h13.38V105.9h44.8v11.63Z"/><path class="cls-1" d="M565.33,117.53V40h56.08V51.68h-42.7V71.81h32.11v11H578.71v23h42.7v11.63Z"/><path d="M580.81,140.57a61,61,0,1,0,61,61A61,61,0,0,0,580.81,140.57Zm29,89.93c-20.17,20.17-49.49,23.55-65.5,7.54s-12.63-45.33,7.54-65.51S601.33,149,617.34,165,630,210.33,609.79,230.5Z"/><path d="M286,140.57a61,61,0,1,0,60.95,61A61,61,0,0,0,286,140.57Zm29,89.93c-20.17,20.17-49.5,23.55-65.51,7.54s-12.63-45.33,7.54-65.5S306.48,149,322.49,165,335.12,210.33,315,230.5Z"/></g></svg>